<svg width="8" height="5" viewBox="0 0 8 5" fill="none" xmlns="http://www.w3.org/2000/svg">
<path d="M3.52834 4.46152L0.530844 1.03527C0.177094 0.632149 0.464594 -0.000976333 1.00147 -0.000976333H6.99647C7.11662 -0.00107935 7.23426 0.0334533 7.33529 0.0984865C7.43632 0.16352 7.51647 0.256297 7.56612 0.365707C7.61579 0.475117 7.63286 0.596522 7.61529 0.715384C7.59773 0.834246 7.54628 0.945527 7.46709 1.0359L4.46959 4.4609C4.41093 4.52803 4.33858 4.58183 4.25741 4.6187C4.17624 4.65556 4.08812 4.67464 3.99897 4.67464C3.90982 4.67464 3.8217 4.65556 3.74053 4.6187C3.65935 4.58183 3.58701 4.52803 3.52834 4.4609V4.46152Z" fill="#6C757D"/>
</svg>
