<svg width="21" height="22" viewBox="0 0 21 22" fill="none" xmlns="http://www.w3.org/2000/svg">
<path d="M6.76348 1.9916C6.44766 1.22871 5.61504 0.822653 4.81934 1.04004L1.20996 2.02441C0.496289 2.22129 0 2.86933 0 3.60761C0 13.7549 8.22773 21.9826 18.375 21.9826C19.1133 21.9826 19.7613 21.4863 19.9582 20.7727L20.9426 17.1633C21.16 16.3676 20.7539 15.535 19.991 15.2191L16.0535 13.5785C15.385 13.2996 14.6098 13.4924 14.1545 14.0543L12.4975 16.0764C9.60996 14.7105 7.27207 12.3727 5.90625 9.48515L7.92832 7.83222C8.49023 7.37285 8.68301 6.60175 8.4041 5.9332L6.76348 1.9957V1.9916Z" fill="#212529"/>
</svg>
