<svg width="20" height="21" viewBox="0 0 20 21" fill="none" xmlns="http://www.w3.org/2000/svg">
<path d="M20 10.5C20 16.0228 15.5228 20.5 10 20.5C4.47715 20.5 0 16.0228 0 10.5C0 4.97715 4.47715 0.5 10 0.5C15.5228 0.5 20 4.97715 20 10.5ZM10.3584 7.88249C9.38576 8.28704 7.44183 9.12437 4.52663 10.3945C4.05324 10.5827 3.80527 10.7669 3.78269 10.947C3.74454 11.2513 4.12565 11.3711 4.64461 11.5343C4.7152 11.5565 4.78835 11.5795 4.86333 11.6039C5.37391 11.7698 6.06074 11.964 6.41779 11.9717C6.74167 11.9787 7.10316 11.8452 7.50225 11.5712C10.226 9.73254 11.632 8.80322 11.7203 8.78318C11.7826 8.76905 11.8689 8.75128 11.9274 8.80325C11.9858 8.85522 11.9801 8.95364 11.9739 8.98005C11.9361 9.14099 10.4402 10.5318 9.66599 11.2515C9.42464 11.4759 9.25344 11.6351 9.21845 11.6714C9.14005 11.7528 9.06015 11.8298 8.98337 11.9039C8.50902 12.3611 8.15331 12.7041 9.00306 13.264C9.41142 13.5331 9.73818 13.7556 10.0642 13.9777C10.4202 14.2201 10.7753 14.4619 11.2347 14.7631C11.3518 14.8398 11.4636 14.9195 11.5725 14.9971C11.9868 15.2925 12.359 15.5579 12.8189 15.5156C13.0861 15.491 13.3621 15.2397 13.5023 14.4903C13.8336 12.7193 14.4847 8.88209 14.6352 7.30086C14.6484 7.16232 14.6318 6.98502 14.6185 6.90719C14.6052 6.82936 14.5774 6.71847 14.4762 6.63638C14.3564 6.53916 14.1714 6.51866 14.0887 6.52012C13.7126 6.52675 13.1355 6.7274 10.3584 7.88249Z" fill="#20A3E5"/>
</svg>
