<svg width="20" height="21" viewBox="0 0 20 21" fill="none" xmlns="http://www.w3.org/2000/svg">
<path d="M17.0788 3.37584C15.2029 1.49039 12.7017 0.45459 10.0382 0.45459C4.5537 0.45459 0.0859189 4.92238 0.0811456 10.4069C0.0811456 12.1634 0.539379 13.8723 1.40811 15.3854L0 20.5453L5.27924 19.1611C6.73508 19.9534 8.37232 20.3735 10.0382 20.3735H10.043C15.5274 20.3735 19.9952 15.9057 20 10.4164C19.9952 7.75771 18.9594 5.25651 17.0788 3.37584ZM10.0382 18.6885C8.54893 18.6885 7.09308 18.2876 5.82339 17.5334L5.52267 17.352L2.39141 18.173L3.22673 15.1181L3.03103 14.8031C2.20048 13.4856 1.76611 11.963 1.76611 10.4021C1.76611 5.84839 5.47971 2.13478 10.043 2.13478C12.253 2.13478 14.3294 2.99875 15.895 4.55961C17.4558 6.12525 18.315 8.20162 18.315 10.4117C18.3103 14.9797 14.5967 18.6885 10.0382 18.6885ZM14.5776 12.4928C14.3294 12.3687 13.1074 11.7673 12.8783 11.6813C12.6492 11.6002 12.4821 11.5572 12.3198 11.8054C12.1527 12.0537 11.6754 12.6169 11.5322 12.7792C11.389 12.9463 11.241 12.9654 10.9928 12.8412C10.7446 12.7171 9.94272 12.4546 8.99284 11.605C8.25298 10.9463 7.75656 10.13 7.60859 9.88182C7.46539 9.63361 7.59427 9.49995 7.71838 9.37585C7.82816 9.26606 7.96659 9.08468 8.09069 8.94148C8.2148 8.79828 8.25776 8.69327 8.3389 8.52621C8.42005 8.35914 8.38186 8.21594 8.31981 8.09184C8.25776 7.96773 7.76134 6.741 7.55131 6.24458C7.35084 5.7577 7.14559 5.82453 6.99284 5.81976C6.84964 5.81021 6.68258 5.81021 6.51551 5.81021C6.34845 5.81021 6.08115 5.87226 5.85203 6.12047C5.62291 6.36868 4.98329 6.97012 4.98329 8.19685C4.98329 9.42358 5.8759 10.6026 6 10.7696C6.12411 10.9367 7.75179 13.4475 10.2482 14.5262C10.8401 14.784 11.3031 14.9367 11.6659 15.0513C12.2625 15.2422 12.8019 15.2136 13.2315 15.1515C13.7088 15.0799 14.7017 14.5501 14.9117 13.9677C15.1169 13.3854 15.1169 12.889 15.0549 12.784C14.9928 12.679 14.8258 12.6169 14.5776 12.4928Z" fill="#66BC71"/>
</svg>
