<svg width="20" height="21" viewBox="0 0 20 21" fill="none" xmlns="http://www.w3.org/2000/svg">
<g id="youtube-svgrepo-com 1" clip-path="url(#clip0_752_385)">
<g id="Group">
<path id="Vector" d="M15.8463 3.42383H4.15374C1.85969 3.42383 0 5.28352 0 7.57757V13.4226C0 15.7166 1.85969 17.5763 4.15374 17.5763H15.8463C18.1403 17.5763 20 15.7166 20 13.4226V7.57757C20 5.28352 18.1403 3.42383 15.8463 3.42383ZM13.0371 10.7845L7.56814 13.3928C7.42241 13.4623 7.25408 13.3561 7.25408 13.1947V7.81488C7.25408 7.65115 7.42684 7.54503 7.57287 7.61905L13.0418 10.3905C13.2044 10.4728 13.2016 10.706 13.0371 10.7845Z" fill="#F61C0D"/>
</g>
</g>
<defs>
<clipPath id="clip0_752_385">
<rect width="20" height="20" fill="white" transform="translate(0 0.5)"/>
</clipPath>
</defs>
</svg>
