<svg width="200" height="45" viewBox="0 0 200 45" fill="none" xmlns="http://www.w3.org/2000/svg">
<path d="M27.629 10.9437C28.648 10.7311 30.7465 10.5108 33.309 10.8317C33.9624 10.9133 34.3904 11.5399 34.273 12.1893L32.451 22.2088C32.4169 22.3949 32.4283 22.5886 32.4832 22.7708L34.8658 30.6581C35.1518 31.6037 34.2332 32.4733 33.3033 32.1524C32.9245 32.0214 32.5438 31.8942 32.201 31.7841C31.5438 31.5733 30.9605 32.0898 30.5381 32.6366C29.7502 33.6562 27.8089 34.5771 23.9946 32.9594C22.4434 32.3024 19.1063 30.4474 18.0911 33.3182C17.5552 32.7809 18.1858 31.222 19.343 30.4493C20.7749 29.4923 22.8279 31.0796 25.6631 28.2373C26.0211 27.8784 27.8696 26.1449 27.6309 26.3234C23.4908 29.4373 18.0911 28.0569 17.9112 26.1449C21.4283 27.4607 22.3052 25.7727 22.1442 24.6506C21.7862 22.1386 18.5476 21.5025 17.076 22.4974C15.0495 23.9329 10.612 26.2037 9.08546 23.8132C7.55895 21.4209 5.92448 22.319 5.50781 22.3778C6.70099 21.3012 7.48698 20.9424 8.72751 22.1386C9.96804 23.3348 11.7881 23.5132 12.5438 23.4544C14.3923 23.0955 14.5343 21.7341 14.8089 21.062C15.2256 20.0462 14.3317 18.6696 12.6631 18.4304C13.9756 17.8323 15.0476 17.593 15.7635 17.593C19.9605 17.593 21.4283 20.5228 25.0646 20.8816C27.6764 21.1398 28.3374 19.843 28.3601 18.9544C28.3639 18.7664 28.2919 18.5899 28.1764 18.4399C27.0817 17.0291 24.3108 14.7601 20.6536 15.4399C16.79 16.1576 11.3525 15.4988 11.3525 15.4988C11.3525 15.4988 14.1555 15.4399 16.0627 14.8418C17.9699 14.2437 19.1044 13.2867 21.3089 12.3905C23.5154 11.4944 25.7805 11.6728 27.8677 12.0924C29.0457 12.3279 29.8771 12.8766 30.362 13.3323C30.6593 13.6114 31.0362 13.826 31.4434 13.826H31.9055C32.2218 13.826 32.4377 13.6399 32.2692 13.3722C32.0817 13.0779 31.6953 12.626 30.968 11.9728C29.7654 10.8906 28.3847 10.8165 27.6271 10.9475C27.5154 10.9703 27.4169 10.995 27.3317 11.0178C27.415 10.9912 27.5135 10.9684 27.6271 10.9475L27.629 10.9437Z" fill="#C30B30"/>
<path d="M58.1617 22.5012C58.1617 23.1069 58.0935 27.9657 54.6655 32.0347C54.1598 32.6347 53.6863 33.0923 53.3435 33.4018C52.5424 33.3505 51.3435 33.3714 49.9837 33.7853C49.7223 33.8651 49.0821 34.072 47.9212 34.691C46.942 35.2113 45.6162 36.0125 44.1484 37.2144V7.78613C45.1428 7.84309 50.6238 8.25132 54.6257 12.9241C58.0462 16.9171 58.1636 21.4265 58.1636 22.5012H58.1617Z" fill="#C30B30"/>
<path d="M56.671 26.574C56.6748 26.9043 56.671 28.0189 56.1995 29.3651C55.5214 31.298 54.3207 32.4581 53.546 33.2062C52.582 34.1366 51.707 34.6796 51.1843 35.0005C50.8832 35.1847 49.4135 36.0695 47.4002 36.6486C46.4835 36.9125 45.7298 37.034 45.4665 37.0739C44.9495 37.1517 44.4987 37.1916 44.1445 37.2144C44.1445 32.948 44.1445 28.6834 44.1445 24.417C44.1502 23.7904 44.2601 22.6968 44.9514 21.643C46.243 19.6778 48.5801 19.3379 49.0309 19.2848C49.1104 19.2753 49.1729 19.2696 49.2146 19.2658C51.6786 19.0341 54.1692 20.4563 55.6786 22.8582C56.0404 23.517 56.6464 24.8309 56.671 26.5759V26.574Z" fill="#284E99"/>
<path fill-rule="evenodd" clip-rule="evenodd" d="M42.6304 7.78613C34.9335 8.16018 28.8047 14.6063 28.8047 22.5012C28.8047 30.3961 34.9316 36.8423 42.6304 37.2163V32.0499C41.3104 31.9511 40.0679 31.5752 38.9543 30.9809L42.6304 25.8638V19.3645L38.835 14.0823C39.9789 13.4519 41.263 13.0551 42.6304 12.9526V7.78613ZM37.638 30.136C35.5793 28.5543 34.1816 26.1392 33.9316 23.386L40.9619 23.6822C41.0225 23.817 41.0945 23.9442 41.1778 24.0639L37.638 30.136ZM41.1607 21.1436C41.0869 21.2557 41.0206 21.3753 40.9638 21.4987L33.9202 21.7949C34.121 19.0114 35.4941 16.5582 37.5433 14.9405L41.1607 21.1436Z" fill="#212227"/>
<path d="M68.8717 17.4467C69.5838 16.9683 70.4702 16.729 71.5346 16.729C72.7164 16.729 73.6766 17.0233 74.4171 17.6119C75.1577 18.1929 75.6823 19.0018 75.991 20.0385L78.6652 19.2999C78.1728 17.7486 77.3187 16.5164 76.1009 15.6031C74.8831 14.6841 73.3603 14.2246 71.5346 14.2246C69.9493 14.2246 68.5933 14.574 67.4626 15.2727C66.3319 15.9638 65.4626 16.9322 64.8546 18.1739C64.2524 19.4176 63.9531 20.8587 63.9531 22.4992C63.9531 24.1397 64.2543 25.5809 64.8546 26.8245C65.4626 28.0682 66.3338 29.0384 67.4626 29.7372C68.5933 30.4283 69.9493 30.7739 71.5346 30.7739C73.3622 30.7739 74.8831 30.3182 76.1009 29.4068C77.3187 28.4878 78.1728 27.2517 78.6652 25.7005L75.991 24.9619C75.6823 25.991 75.1577 26.8017 74.4171 27.3884C73.6766 27.977 72.7145 28.2713 71.5346 28.2713C70.4702 28.2713 69.5838 28.0321 68.8717 27.5536C68.1596 27.0751 67.6255 26.4068 67.2656 25.5467C66.9134 24.679 66.7372 23.6631 66.7372 22.5011C66.7448 21.3391 66.9247 20.3271 67.277 19.467C67.6368 18.5993 68.169 17.9271 68.8717 17.4486V17.4467Z" fill="#030402"/>
<path d="M84.5509 14.5571L79.5547 30.4437H82.2839L83.3653 27.0013H89.6077L90.7024 30.4437H93.4316L88.4354 14.5571H84.5509ZM84.1456 24.5197L86.4676 17.1299L88.8179 24.5197H84.1456Z" fill="#030402"/>
<path d="M106.293 23.0748C106.946 22.1406 107.272 21.0261 107.272 19.7311C107.272 18.8558 107.126 18.0622 106.833 17.3482C106.547 16.6267 106.104 16.0324 105.501 15.5616C104.907 15.0907 104.151 14.785 103.234 14.6464C103.03 14.6084 102.806 14.5875 102.564 14.5799C102.322 14.5647 102.125 14.5571 101.969 14.5571H95.4219V30.4437H98.0734V24.8938H101.839L104.52 30.4437H107.524L104.596 24.4229C105.304 24.1191 105.871 23.671 106.291 23.0748H106.293ZM98.0734 17.052H101.859C102.007 17.052 102.172 17.0596 102.356 17.0748C102.539 17.0824 102.708 17.1071 102.861 17.1527C103.301 17.2628 103.645 17.4584 103.895 17.7375C104.153 18.0166 104.333 18.3375 104.435 18.6963C104.545 19.0495 104.6 19.3951 104.6 19.733C104.6 20.071 104.545 20.4166 104.435 20.7697C104.333 21.1229 104.153 21.4381 103.895 21.7191C103.645 21.9982 103.301 22.1938 102.861 22.3039C102.708 22.3476 102.539 22.378 102.356 22.3931C102.172 22.4083 102.007 22.4159 101.859 22.4159H98.0734V17.0539V17.052Z" fill="#030402"/>
<path d="M120.491 22.6112C120.044 22.2941 119.578 22.0492 119.093 21.8726C118.608 21.696 118.173 21.5555 117.782 21.453L114.943 20.6593C114.584 20.5644 114.228 20.4466 113.875 20.3061C113.531 20.1599 113.241 19.9644 113.006 19.7213C112.771 19.4707 112.654 19.1517 112.654 18.7625C112.654 18.3505 112.79 17.9897 113.061 17.6802C113.339 17.3707 113.703 17.1372 114.15 16.9739C114.604 16.8049 115.097 16.7232 115.625 16.7308C116.169 16.746 116.678 16.8562 117.156 17.0612C117.64 17.2663 118.046 17.5682 118.377 17.965C118.714 18.3542 118.942 18.8289 119.059 19.3872L121.909 18.8916C121.674 17.9137 121.271 17.0783 120.699 16.3872C120.127 15.696 119.415 15.1701 118.565 14.8093C117.714 14.441 116.745 14.2549 115.659 14.2473C114.589 14.2397 113.612 14.4087 112.733 14.7543C111.86 15.0998 111.163 15.622 110.642 16.3207C110.129 17.0119 109.871 17.8682 109.871 18.8916C109.871 19.5903 109.985 20.1789 110.212 20.6574C110.447 21.1283 110.745 21.5175 111.104 21.827C111.472 22.1289 111.856 22.3681 112.26 22.5447C112.671 22.7137 113.051 22.8504 113.404 22.9529L117.498 24.1662C117.792 24.2555 118.048 24.3618 118.269 24.4871C118.496 24.6048 118.68 24.7377 118.82 24.8839C118.968 25.0301 119.078 25.201 119.15 25.3909C119.224 25.5751 119.26 25.7763 119.26 25.9985C119.26 26.4903 119.103 26.9061 118.786 27.246C118.478 27.5839 118.074 27.8422 117.576 28.0187C117.078 28.1953 116.546 28.2846 115.981 28.2846C115.029 28.2846 114.184 28.0263 113.451 27.5118C112.724 26.9972 112.245 26.2681 112.01 25.3282L109.258 25.7479C109.419 26.7846 109.798 27.6827 110.39 28.4403C110.993 29.1902 111.754 29.7675 112.68 30.1719C113.612 30.5763 114.657 30.7795 115.817 30.7795C116.631 30.7795 117.409 30.6769 118.15 30.47C118.898 30.2649 119.563 29.9554 120.142 29.5434C120.722 29.1314 121.18 28.6168 121.517 27.9978C121.862 27.3732 122.034 26.6479 122.034 25.8238C122.034 24.9998 121.887 24.3751 121.595 23.8605C121.309 23.346 120.942 22.9302 120.495 22.6131L120.491 22.6112Z" fill="#030402"/>
<path d="M136.651 14.5571H133.393L127.066 21.928V14.5571H124.414V30.4437H127.066V23.0292L133.745 30.4437H137.113L129.838 22.3457L136.651 14.5571Z" fill="#030402"/>
<path d="M148.595 15.2747C147.464 14.5759 146.108 14.2266 144.523 14.2266C142.938 14.2266 141.582 14.5759 140.451 15.2747C139.32 15.9658 138.453 16.9341 137.843 18.1759C137.241 19.4196 136.941 20.8607 136.941 22.5012C136.941 24.1417 137.243 25.5828 137.843 26.8265C138.453 28.0701 139.322 29.0404 140.451 29.7391C141.582 30.4302 142.938 30.7758 144.523 30.7758C146.108 30.7758 147.464 30.4302 148.595 29.7391C149.731 29.0404 150.6 28.0701 151.203 26.8265C151.811 25.5828 152.116 24.1417 152.116 22.5012C152.116 20.8607 151.811 19.4196 151.203 18.1759C150.6 16.9322 149.731 15.9658 148.595 15.2747ZM148.771 25.5467C148.419 26.4144 147.886 27.0866 147.174 27.5651C146.47 28.0436 145.585 28.279 144.523 28.2714C143.458 28.2562 142.572 28.0094 141.86 27.5328C141.155 27.0543 140.627 26.3898 140.275 25.5353C139.922 24.6752 139.746 23.6632 139.746 22.5012C139.746 21.3392 139.922 20.3234 140.275 19.4556C140.635 18.5879 141.165 17.9139 141.869 17.4373C142.574 16.9588 143.458 16.7234 144.521 16.731C145.585 16.7462 146.468 16.9911 147.172 17.4696C147.885 17.9481 148.417 18.6164 148.769 19.4765C149.129 20.3291 149.309 21.3373 149.309 22.4993C149.309 23.6613 149.129 24.6771 148.769 25.5448L148.771 25.5467Z" fill="#030402"/>
<path d="M165.184 23.0748C165.837 22.1406 166.163 21.0261 166.163 19.7311C166.163 18.8558 166.017 18.0622 165.723 17.3482C165.438 16.6267 164.994 16.0324 164.392 15.5616C163.797 15.0907 163.042 14.785 162.125 14.6464C161.92 14.6084 161.695 14.5875 161.455 14.5799C161.212 14.5647 161.015 14.5571 160.86 14.5571H154.312V30.4437H156.964V24.8938H160.731L163.413 30.4437H166.417L163.489 24.4229C164.197 24.1191 164.763 23.671 165.184 23.0748ZM156.964 17.052H160.75C160.896 17.052 161.061 17.0596 161.244 17.0748C161.428 17.0824 161.597 17.1071 161.75 17.1527C162.189 17.2628 162.534 17.4584 162.784 17.7375C163.042 18.0166 163.22 18.3375 163.324 18.6963C163.434 19.0495 163.489 19.3951 163.489 19.733C163.489 20.071 163.434 20.4166 163.324 20.7697C163.222 21.1229 163.042 21.4381 162.784 21.7191C162.534 21.9982 162.189 22.1938 161.75 22.3039C161.597 22.3476 161.428 22.378 161.244 22.3931C161.061 22.4083 160.896 22.4159 160.75 22.4159H156.964V17.0539V17.052Z" fill="#030402"/>
<path d="M168.84 30.4437H179.073V27.9507H171.491V23.4602H177.753V20.9672H171.491V17.0501H179.073V14.5571H168.84V30.4437Z" fill="#030402"/>
<path d="M191.761 30.4437H194.49L189.494 14.5571H185.609L180.613 30.4437H183.342L184.424 27.0013H190.666L191.761 30.4437ZM185.204 24.5197L187.526 17.1299L189.877 24.5197H185.204Z" fill="#030402"/>
</svg>
